<?xml version="1.0" encoding="utf-8"?>
<!-- Generator: Adobe Illustrator 30.2.1, SVG Export Plug-In . SVG Version: 9.03 Build 0)  -->
<svg version="1.0" id="圖層_1" xmlns="http://www.w3.org/2000/svg" xmlns:xlink="http://www.w3.org/1999/xlink" x="0px" y="0px"
	 viewBox="0 0 337.6 268.94" style="enable-background:new 0 0 337.6 268.94;" xml:space="preserve">
<style type="text/css">
	.st0{fill:#7BBD3B;}
	.st1{fill:#FFFFFF;}
</style>
<g>
	<polygon class="st0" points="113.78,39.1 140.54,53.96 164.76,22.1 194.93,53.96 218.29,38.03 316.43,246.83 21.17,246.83 	"/>
	<path class="st1" d="M204.37,196.56c-0.27-2.6-0.83-5.14-1.61-7.56l52.55-22l-1.98-4.73l-52.46,21.97
		c-1.55-3.25-3.57-6.21-5.93-8.86l41.17-39.65l-3.56-3.69l-41.28,39.74c-1.6-1.37-3.31-2.61-5.12-3.7l21.35-53.4l-5.69-2.26
		l-21.16,52.93c-2.79-1.11-5.73-1.9-8.8-2.33v-56.73h-6.13v56.37c-3.24,0.06-6.4,0.54-9.42,1.4l-20.63-51.65l-5.69,2.26l20.6,51.5
		c-2.34,1.07-4.54,2.4-6.59,3.9l-39.47-38.03l-3.56,3.69l39.14,37.66c-2.75,2.67-5.11,5.74-6.95,9.14L84.06,162l-1.98,4.73
		l48.95,20.5c-1.14,2.94-1.87,6.08-2.25,9.33H77.09v5.22h182.87v-5.22H204.37z"/>
</g>
</svg>
