<?xml version="1.0" encoding="UTF-8"?>
<!-- 崧達 Logo 圖形（取自 2026 新版橫式 Logo 資產 1），正方形畫布供 favicon 使用 -->
<svg xmlns="http://www.w3.org/2000/svg" viewBox="-20 -88.6 614.42 614.42">
  <polygon fill="#62ab31" points="180.18 33.06 232.23 61.98 279.35 0 338.05 61.98 383.49 30.98 574.42 437.21 0 437.21 180.18 33.06"/>
  <path fill="#fcfdfd" d="M124.44,340.8v-24.18h117.34l-101.26-65.32,12.38-20.48,102.03,61.29-32-58.94c-1.02-1.88-1.84-3.35-2.91-5.26l-22.66-40.27,20.78-11.58,58.14,104.63,2.17-119.52,23.86.44-2.46,120.1,61.93-102.94,20.42,12.3-62.19,103.12,104.27-57.98,11.55,20.8-102.9,59.62h117.05v24.18H124.44Z"/>
</svg>
