<?xml version="1.0" encoding="UTF-8"?>
<svg id="_圖層_1" data-name="圖層 1" xmlns="http://www.w3.org/2000/svg" viewBox="0 0 841.89 595.28">
  <defs>
    <style>
      .cls-1 {
        fill: #fff;
      }

      .cls-2 {
        fill: #221714;
      }

      .cls-3 {
        fill: #77b43e;
      }
    </style>
  </defs>
  <g>
    <path class="cls-2" d="M281.42,288.19c1.23.73,2.83,1.27,4.81,1.63,1.98.36,4.03.59,6.15.67,2.12.08,3.96.13,5.52.13.61,0,1.33-.01,2.13-.04.81-.03,1.52-.04,2.13-.04,2.01-.06,3.77-.29,5.27-.71,1.51-.42,2.66-1.13,3.47-2.13.81-1,1.21-2.43,1.21-4.27,0-2.29-.6-3.77-1.8-4.44-1.2-.67-2.94-1-5.23-1h-9.54c-1.67,0-3.35-.08-5.02-.25-1.67-.17-3.18-.54-4.52-1.13-1.34-.59-2.43-1.53-3.26-2.85-.84-1.31-1.26-3.17-1.26-5.57,0-2.79.5-4.99,1.51-6.61,1-1.62,2.41-2.81,4.23-3.56,1.81-.75,3.91-1.24,6.28-1.46,2.37-.22,4.98-.33,7.83-.33,1.67,0,3.52.03,5.52.08,2.01.06,3.93.18,5.78.38,1.84.2,3.26.52,4.27.96,1.17.11,2.08.46,2.72,1.05.64.59.96,1.33.96,2.22v2.68c-.45-.56-1.27-.99-2.47-1.3-1.2-.31-2.55-.54-4.06-.71s-2.97-.29-4.39-.38c-1.42-.08-2.64-.13-3.64-.13h-5.69c-1.9,0-3.6.15-5.11.46-1.51.31-2.71.92-3.6,1.84-.89.92-1.34,2.33-1.34,4.23,0,1.45.29,2.55.88,3.31.59.75,1.45,1.26,2.59,1.51,1.14.25,2.5.38,4.06.38h10.63c2.51,0,4.73.21,6.65.63,1.93.42,3.43,1.35,4.52,2.8,1.09,1.45,1.63,3.74,1.63,6.86,0,2.96-.64,5.31-1.93,7.07-1.28,1.76-3.04,3.01-5.27,3.77-2.23.75-4.8,1.21-7.7,1.38-1.73.11-3.4.18-5.02.21-1.62.03-3.32.01-5.11-.04-1.62,0-3.29-.06-5.02-.17-1.73-.11-3.34-.32-4.81-.63-1.48-.31-2.68-.74-3.6-1.3-.92-.56-1.38-1.31-1.38-2.26v-2.93Z"/>
    <path class="cls-2" d="M360.53,295.64c-3.63,0-6.82-.27-9.58-.8-2.76-.53-5.08-1.49-6.95-2.89-1.87-1.39-3.26-3.39-4.19-5.99-.92-2.59-1.38-6.01-1.38-10.25s.5-7.67,1.51-10.3c1-2.62,2.47-4.63,4.39-6.03,1.93-1.39,4.3-2.33,7.12-2.81,2.82-.47,6.04-.71,9.67-.71s6.81.27,9.54.8c2.73.53,5.04,1.49,6.91,2.89,1.87,1.39,3.26,3.39,4.19,5.98.92,2.59,1.38,5.99,1.38,10.17s-.5,7.74-1.51,10.34c-1,2.59-2.47,4.59-4.39,5.99-1.93,1.4-4.28,2.34-7.07,2.85-2.79.5-6,.75-9.63.75ZM360.69,290.95c2.23,0,4.2-.2,5.9-.59,1.7-.39,3.12-1.12,4.27-2.18,1.14-1.06,1.99-2.59,2.55-4.6.56-2.01.84-4.63.84-7.87s-.28-5.78-.84-7.79c-.56-2.01-1.41-3.54-2.55-4.6-1.14-1.06-2.57-1.79-4.27-2.18-1.7-.39-3.67-.59-5.9-.59s-4.19.2-5.86.59c-1.67.39-3.07,1.12-4.19,2.18-1.12,1.06-1.95,2.59-2.51,4.6-.56,2.01-.84,4.6-.84,7.79s.28,5.86.84,7.87c.56,2.01,1.39,3.54,2.51,4.6,1.12,1.06,2.51,1.79,4.19,2.18,1.67.39,3.63.59,5.86.59Z"/>
    <path class="cls-2" d="M402.97,295.05v-34.66c0-1.68.17-2.73.5-3.18.33-.45,1.23-.67,2.68-.67h7.87l22.94,29.72.25.67v-30.39h6.53c-.11.06-.18.31-.21.75-.03.45-.04.92-.04,1.42v32.9c0,1.56-.25,2.53-.75,2.89-.5.36-1.48.54-2.93.54h-7.2l-23.19-30.05-.17-.84v30.89h-6.28Z"/>
    <path class="cls-2" d="M485.25,295.64c-4.02,0-7.41-.31-10.17-.92-2.76-.61-4.99-1.66-6.7-3.14-1.7-1.48-2.94-3.49-3.73-6.03-.78-2.54-1.17-5.76-1.17-9.67,0-4.19.5-7.59,1.51-10.21,1.01-2.62,2.48-4.63,4.44-6.03,1.95-1.39,4.3-2.34,7.03-2.85,2.73-.5,5.86-.75,9.37-.75,3.18,0,6.07.07,8.66.21,2.6.14,4.73.41,6.4.8,1.23.22,2.13.54,2.72.96.59.42.95.88,1.09,1.38.14.5.21,1,.21,1.51v2.18c-.39-.39-1.13-.7-2.22-.92-1.09-.22-2.34-.43-3.77-.63s-2.89-.35-4.4-.46c-1.51-.11-2.93-.2-4.27-.25-1.34-.06-2.4-.08-3.18-.08-3.68,0-6.6.43-8.75,1.3-2.15.87-3.68,2.39-4.6,4.56-.92,2.18-1.38,5.27-1.38,9.29s.42,6.86,1.26,9.04c.84,2.18,2.23,3.71,4.19,4.6,1.95.89,4.6,1.34,7.95,1.34,3.01,0,5.41-.28,7.2-.84s3.08-1.6,3.89-3.14c.81-1.53,1.24-3.67,1.3-6.4.05-.61.07-1.16.04-1.63-.03-.47-.04-.85-.04-1.13h-15.32c0-1.23.07-2.19.21-2.89.14-.7.52-1.19,1.13-1.46.61-.28,1.56-.42,2.85-.42h19.5v7.45c0,2.9-.35,5.31-1.05,7.24-.7,1.93-1.84,3.47-3.43,4.65-1.59,1.17-3.77,2.02-6.53,2.55-2.76.53-6.18.8-10.25.8Z"/>
    <path class="cls-2" d="M529.61,256.55h40.52v4.77h-15.9v30.47c0,1.23-.18,2.08-.54,2.55-.36.48-1.19.71-2.47.71h-5.61v-33.74h-15.99v-4.77Z"/>
    <path class="cls-2" d="M576.99,295.05l11.72-32.56c.78-2.01,1.84-3.56,3.18-4.65,1.34-1.09,3.52-1.63,6.53-1.63,2.68,0,4.73.5,6.15,1.51,1.42,1,2.52,2.6,3.31,4.77l11.97,32.56h-9.29l-3.6-10.05h-19.84l-3.52,10.05h-6.61ZM588.46,281.41h16.91l-5.27-15.32c-.22-.72-.52-1.37-.88-1.93-.36-.56-1.13-.84-2.3-.84s-2.04.29-2.43.88c-.39.59-.7,1.21-.92,1.88l-5.11,15.32Z"/>
    <path class="cls-2" d="M637.77,295.05v-35.66c0-1.23.22-2.01.67-2.34.45-.33,1.23-.5,2.34-.5h5.61v16.24h23.44v-16.24h8.62v35.33c0,1.28-.18,2.13-.54,2.55-.36.42-1.21.63-2.55.63h-5.52v-17.58h-23.44v17.58h-8.62Z"/>
  </g>
  <g>
    <polygon class="cls-3" points="190.95 242.73 198.89 247.15 206.09 237.68 215.05 247.15 221.98 242.41 251.13 304.43 163.44 304.43 190.95 242.73"/>
    <path class="cls-1" d="M217.85,289.5c-.08-.77-.25-1.53-.48-2.25l15.61-6.53-.59-1.4-15.58,6.53c-.46-.96-1.06-1.84-1.76-2.63l12.23-11.78-1.06-1.09-12.26,11.8c-.47-.41-.98-.78-1.52-1.1l6.34-15.86-1.69-.67-6.28,15.72c-.83-.33-1.7-.56-2.61-.69v-16.85h-1.82v16.74c-.96.02-1.9.16-2.8.42l-6.13-15.34-1.69.67,6.12,15.3c-.69.32-1.35.71-1.96,1.16l-11.72-11.3-1.06,1.1,11.62,11.19c-.82.79-1.52,1.7-2.06,2.72l-14.58-6.11-.59,1.4,14.54,6.09c-.34.87-.56,1.81-.67,2.77h-15.35v1.55h54.31v-1.55h-16.51Z"/>
  </g>
</svg>